<svg id="Capa_1" enable-background="new 0 0 512 512" height="512" viewBox="0 0 512 512" width="512" xmlns="http://www.w3.org/2000/svg"><g><g fill="#a6eddf"><path d="m427.678 97.567c-45.909-45.909-106.949-71.193-171.874-71.193-13.623 0-27.195 1.136-40.547 3.378l-9.994-18.141c-8.335-15.129-29.923-15.562-38.857-.778l-51.584 85.363c-8.932 14.782 1.485 33.691 18.753 34.038l99.716 2.006c17.27.347 28.439-18.131 20.104-33.26l-7.17-13.015c3.186-.164 6.379-.265 9.579-.265 101.315 0 183.741 82.426 183.741 183.741 0 42.58-14.133 82.537-40.871 115.549-10.311 12.731-8.349 31.409 4.381 41.72 5.494 4.449 12.094 6.613 18.652 6.613 8.64 0 17.207-3.757 23.069-10.994 34.884-43.07 54.095-97.367 54.095-152.888-.001-64.926-25.284-125.965-71.193-171.874z"/><path d="m268.657 452.739c-16.334 1.127-28.674 15.296-27.547 31.631 1.078 15.652 14.11 27.626 29.565 27.626.682 0 1.374-.02 2.066-.07 16.344-1.127 28.684-15.286 27.557-31.63-1.128-16.345-15.297-28.684-31.641-27.557z"/><path d="m194.46 442.703c-15.445-5.468-32.402 2.611-37.87 18.055-5.468 15.445 2.621 32.392 18.065 37.87 3.273 1.157 6.615 1.7 9.898 1.7 12.211 0 23.651-7.593 27.962-19.765 5.468-15.445-2.62-32.392-18.055-37.86z"/><path d="m340.65 432.469c-14.525 7.574-20.151 25.49-12.577 40.016 5.29 10.145 15.622 15.949 26.321 15.949 4.627 0 9.314-1.078 13.704-3.372 14.525-7.574 20.151-25.49 12.577-40.015-7.584-14.526-25.501-20.162-40.025-12.578z"/><path d="m130.506 403.834c-11.974-11.173-30.751-10.521-41.924 1.463-11.173 11.974-10.521 30.751 1.463 41.924 5.715 5.33 12.973 7.97 20.221 7.97 7.94 0 15.859-3.164 21.703-9.433 11.174-11.974 10.521-30.751-1.463-41.924z"/><path d="m87.248 342.729c-6.536-15.02-24.017-21.891-39.037-15.356-15.019 6.546-21.891 24.027-15.355 39.047 4.865 11.163 15.771 17.827 27.211 17.827 3.955 0 7.979-.801 11.835-2.482 15.019-6.536 21.891-24.017 15.346-39.036z"/><path d="m54.648 297.463c15.019-6.536 21.891-24.017 15.346-39.037-6.536-15.02-24.017-21.891-39.037-15.356-15.019 6.546-21.891 24.027-15.355 39.047 4.865 11.163 15.771 17.827 27.211 17.827 3.955 0 7.979-.801 11.835-2.481z"/></g><g fill="#7bd9c5"><path d="m157.209 130.238h-23.632c-17.266-.35-27.691-19.254-18.749-34.037l51.581-85.36c6.809-11.27 20.985-13.701 31.019-7.51-2.885 1.782-5.439 4.286-7.386 7.51l-51.581 85.36c-8.933 14.784 1.482 33.687 18.748 34.037z"/><path d="m426.692 426.712c2.132 1.731 4.45 3.121 6.861 4.172-3.75 1.617-7.788 2.442-11.847 2.442-6.552 0-13.155-2.163-18.646-6.614-12.733-10.312-14.701-28.989-4.389-41.722 26.743-33.007 40.877-72.967 40.877-115.544 0-96.538-74.842-175.923-169.536-183.196l-.155-.278c3.194-.165 6.387-.268 9.581-.268 101.317 0 183.742 82.424 183.742 183.742 0 42.577-14.134 82.537-40.867 115.544-10.311 12.733-8.354 31.41 4.379 41.722z"/><path d="m282.54 509.548c-3.018 1.308-6.315 2.143-9.797 2.38-.69.052-1.38.072-2.071.072-15.453 0-28.484-11.971-29.566-27.629-1.123-16.328 11.219-30.503 27.547-31.626 4.914-.34 9.632.536 13.856 2.38-11.188 4.873-18.646 16.39-17.76 29.246.793 11.435 7.963 20.912 17.791 25.177z"/><path d="m196.366 497.866c-3.688 1.607-7.706 2.462-11.816 2.462-3.276 0-6.624-.536-9.89-1.7-15.453-5.47-23.539-22.427-18.069-37.869s22.427-23.519 37.869-18.049c.649.227 1.288.484 1.906.752-7.283 3.163-13.279 9.22-16.132 17.297-5.234 14.783 1.957 30.957 16.132 37.107z"/><path d="m366.18 485.978c-3.822 1.669-7.829 2.462-11.785 2.462-10.703 0-21.036-5.81-26.321-15.947-7.572-14.525-1.947-32.45 12.578-40.022 8.262-4.306 17.616-4.347 25.538-.907-.639.278-1.277.577-1.906.907-14.525 7.572-20.15 25.497-12.578 40.022 3.265 6.263 8.457 10.868 14.474 13.485z"/><path d="m113.684 447.223c2.545 2.369 5.388 4.203 8.406 5.522-3.76 1.638-7.788 2.452-11.826 2.452-7.242 0-14.505-2.637-20.222-7.974-11.981-11.167-12.63-29.947-1.463-41.918 8.808-9.447 22.334-11.857 33.522-6.985-3.636 1.566-7.005 3.904-9.879 6.985-11.178 11.971-10.519 30.751 1.462 41.918z"/><path d="m71.87 381.776c-3.843 1.679-7.86 2.472-11.806 2.472-11.435 0-22.344-6.665-27.207-17.822-6.531-15.02.34-32.502 15.36-39.054 7.84-3.41 16.359-3.163 23.642-.01l-.01.01c-15.02 6.552-21.891 24.034-15.35 39.054 3.122 7.16 8.726 12.476 15.371 15.35z"/><path d="m54.614 297.477c-3.843 1.669-7.86 2.472-11.806 2.472-11.435 0-22.344-6.665-27.207-17.832-6.531-15.02.34-32.502 15.36-39.044 7.85-3.41 16.369-3.163 23.642-.01l-.01.01c-15.02 6.542-21.891 24.024-15.35 39.044 3.122 7.17 8.727 12.475 15.371 15.36z"/></g></g></svg>